# Blender v2.93.5 OBJ File: 'test_tiles.blend'
# www.blender.org
mtllib corner.mtl
o corner_Cube.002
v 0.300000 2.200000 -0.300000
v 0.300000 -0.000000 -0.300000
v -0.300000 -0.000000 -0.300000
v -0.300000 -0.000000 0.300000
v -0.300000 2.200000 0.300000
v 0.300000 0.000000 0.300000
v 0.300000 2.200000 0.300000
v -0.300000 2.200000 -0.300000
vt 0.375000 0.000000
vt 0.625000 0.000000
vt 0.625000 0.250000
vt 0.375000 0.250000
vt 0.375000 0.500000
vt 0.625000 0.500000
vt 0.625000 0.750000
vt 0.375000 0.750000
vt 0.175000 0.500000
vt 0.325000 0.500000
vt 0.325000 0.750000
vt 0.175000 0.750000
vt 0.675000 0.500000
vt 0.825000 0.500000
vt 0.825000 0.750000
vt 0.675000 0.750000
vt 0.375000 0.800000
vt 0.625000 0.800000
vt 0.625000 0.950000
vt 0.375000 0.950000
vt 0.375000 0.300000
vt 0.625000 0.300000
vt 0.625000 0.450000
vt 0.375000 0.450000
vn -1.0000 0.0000 0.0000
vn 1.0000 0.0000 0.0000
vn 0.0000 -1.0000 0.0000
vn 0.0000 1.0000 0.0000
vn 0.0000 0.0000 1.0000
vn 0.0000 0.0000 -1.0000
usemtl Material
s off
f 4/1/1 5/2/1 8/3/1 3/4/1
f 2/5/2 1/6/2 7/7/2 6/8/2
f 3/9/3 2/10/3 6/11/3 4/12/3
f 1/13/4 8/14/4 5/15/4 7/16/4
f 6/17/5 7/18/5 5/19/5 4/20/5
f 3/21/6 8/22/6 1/23/6 2/24/6
